<?xml version="1.0" encoding="utf-8" ?>
<svg xmlns="http://www.w3.org/2000/svg" xmlns:xlink="http://www.w3.org/1999/xlink" width="652" height="267">
	<path fill="#1FC0EB" d="M125.34 10.5549C192.955 4.93137 252.303 55.2207 257.827 122.818C263.35 190.415 212.951 249.664 145.32 255.083C77.833 260.49 18.7152 210.242 13.2038 142.79C7.69247 75.3375 57.87 16.1664 125.34 10.5549ZM74.3238 224.839C75.9301 221.243 77.8797 217.892 79.2029 214.161C82.7692 204.105 84.2638 189.694 80.3575 179.518C77.1361 171.126 70.4041 164.376 65.5818 156.884C51.0636 134.697 48.822 106.655 59.6315 82.4446C67.5991 64.4219 82.6906 50.8589 101.011 43.7913C122.598 35.464 148.925 35.8771 170.111 45.2771C175.213 47.5407 180.129 50.5932 184.539 54.001C198.972 65.9345 206.569 79.4084 208.332 98.1643C208.694 102.018 208.795 106.082 208.461 109.939C207.878 116.683 205.757 122.598 208.657 129.2C211.381 135.401 218.518 142.462 220.291 147.967C220.888 149.819 220.82 152.247 219.499 153.79C216.389 157.421 208.607 154.057 209.078 160.975C209.326 164.628 213.49 169.277 210.566 172.701C209.472 173.981 207.521 174.59 205.964 175.086C207.428 176.604 208.558 177.948 209.347 179.943C207.869 183.383 204.476 185.493 203.263 188.948C200.96 195.503 206.414 204.647 196.34 208.645C189 211.559 170.215 207.415 165.242 209.809C161.686 211.521 159.651 215.094 158.123 218.563C154.001 227.922 154.453 232.21 153.61 241.654C181.26 237.594 206.933 221.451 223.52 199.152C240.819 175.798 248.213 146.569 244.098 117.802C239.784 88.4879 224.803 62.6382 200.932 44.9449C184.783 33.0145 165.647 25.7848 145.641 24.0566C141.479 23.6834 137.065 23.3553 132.893 23.6889C104.983 24.7268 75.4025 36.5017 56.2037 57.2068C33.6988 81.4775 24.6642 108.385 25.9691 141.202C27.0303 167.892 40.8585 195.451 60.3422 213.43C64.7978 217.541 69.7534 220.904 74.3238 224.839ZM108.167 105.464C102.279 106.053 96.7052 109.184 92.9701 113.752C89.2659 118.299 87.5049 124.124 88.0693 129.961C90.2295 150.762 121.18 167.669 132.311 185.341C136.678 178.465 142.916 172.073 149.246 166.981C159.732 157.059 175.661 144.395 176.051 128.702C176.204 122.545 173.745 116.983 169.505 112.58C165.344 108.259 159.808 105.446 153.75 105.343C147.175 105.232 140.643 108.37 136 112.91C134.587 114.292 133.25 115.856 132.074 117.446C126.756 111.51 120.252 105.876 111.887 105.413C110.653 105.345 109.402 105.411 108.167 105.464ZM132.167 50.8948C128.069 54.4578 125.553 59.5001 125.17 64.9154C124.701 70.813 127.361 78.808 131.308 83.2788C131.468 83.459 131.621 83.5304 131.831 83.6383L132.03 83.6309C136.664 77.9367 139.839 72.2273 139.055 64.6511C138.621 60.4617 136.15 53.9329 132.789 51.3026C132.592 51.1482 132.385 51.0175 132.167 50.8948ZM94.3916 66.4233C95.4753 75.0452 98.541 82.6709 105.576 88.1518C109.506 91.2142 113.878 93.0542 118.647 94.3634C116.155 89.5094 112.034 84.9327 108.126 81.1674C106.481 79.5829 104.302 77.9418 103.026 76.0613L103.18 75.6342C104.757 75.4141 106.166 76.4579 107.443 77.2915C107.456 77.3003 107.467 77.3122 107.48 77.3226C112.287 80.3502 116.476 84.0013 120.213 88.2742C122.06 90.386 123.796 92.6842 125.77 94.6721C123.452 85.1411 118.827 76.3606 110.213 71.1312C105.421 68.2535 99.9781 66.634 94.3916 66.4233ZM167.486 66.6582C159.132 67.466 151.89 70.8214 146.487 77.357C142.167 82.5834 140.103 88.2572 138.564 94.7538C144.068 87.6636 151.12 79.8786 159.161 75.7344L160.249 75.3941L160.706 75.6775C160.616 77.1686 153.967 82.6416 152.562 84.2175C149.575 87.567 146.691 91.2468 144.298 95.0451C154.044 91.5998 162.097 87.8998 166.764 78.0611C168.41 74.5913 169.519 70.8293 169.582 66.971L169.254 66.5555L167.486 66.6582Z"/>
	<path fill="#1FC0EB" d="M311.873 65.8887C311.891 65.9554 311.91 66.0218 311.928 66.0887C312.689 69.0323 312.051 75.1659 312.102 78.451C312.301 91.4944 312.771 104.6 312.53 117.643C312.519 118.222 312.455 118.806 312.174 119.322C311.847 119.922 311.305 120.28 310.653 120.438C308.157 121.044 301.667 121.047 299.375 119.913C298.492 118.352 298.521 115.519 298.447 113.744C298.204 107.951 298.37 102.102 298.363 96.3026L298.321 64.4561L298.306 46.2037C298.304 42.249 298.053 38.0668 298.672 34.1566C299.172 33.4646 299.538 33.2425 300.406 33.1227C303.437 32.7043 315.348 32.6493 317.814 33.6214C322.031 38.0056 328.396 80.1484 331.114 81.8269C332.675 80.7788 332.907 78.0754 333.249 76.3175C334.205 71.4176 342.72 34.6287 343.856 33.8762C345.963 32.4814 358.53 32.6737 361.226 33.2225C361.728 33.3246 362.569 33.5486 362.831 34.0322C363.431 35.1423 363.244 37.8318 363.268 39.1113C363.596 56.6176 363.287 74.1807 363.293 91.6932C363.295 97.5327 364.277 116.112 363.023 119.812C361.214 121.204 354.698 120.846 352.335 120.56C351.751 120.489 351.254 120.34 350.753 120.029C348.066 115.427 352.151 68.5486 348.298 62.8348C348.251 62.765 348.209 62.6915 348.165 62.6199C348.303 63.4635 348.277 64.2418 348.131 65.0787C347.273 69.9958 337.647 108.687 336.177 110.784C335.662 111.519 334.943 111.806 334.081 111.933C332.298 112.195 328.468 112.667 326.93 111.678C324.457 110.088 318.368 84.2616 317.233 79.6167C316.564 76.8761 315.291 69.1046 313.543 67.1453C313.656 66.5632 313.489 66.2025 313.277 65.6615L312.683 65.4196L311.873 65.8887Z"/>
	<path fill="#F1FBFC" d="M311.873 65.8887C311.835 63.4965 312.277 59.724 311.226 57.5668C312.796 59.2449 314.244 63.6393 314.124 65.9404C314.091 66.5853 313.953 66.6772 313.543 67.1453C313.656 66.5632 313.489 66.2025 313.277 65.6615L312.683 65.4196L311.873 65.8887Z"/>
	<path fill="#1FC0EB" d="M429.749 33.2556C432.803 32.6881 437.316 32.6826 440.432 33.0857C441.654 33.2438 443.144 33.5308 443.918 34.5812C445.397 36.5903 461.772 78.1917 463.084 82.8615C463.271 83.5261 463.22 84.1843 463.109 84.8561C463.546 84.1897 463.964 83.522 464.067 82.7159C464.657 78.0938 464.138 72.9163 464.101 68.2159C464.017 57.6429 463.81 46.966 464.037 36.399C464.061 35.2694 464.058 34.2281 464.905 33.419C467.537 32.7096 470.524 32.9277 473.232 33.0132C474.372 33.0493 476.233 32.9086 477.061 33.7905C477.499 34.6748 477.65 35.5312 477.683 36.5135C477.834 40.9604 477.4 45.5745 477.333 50.0435C477.239 59.4465 477.23 68.8501 477.304 78.2532L477.705 104.071C477.787 108.981 478.415 114.613 477.47 119.41C475.879 120.858 472.827 120.516 470.774 120.538C469.158 120.55 466.35 120.87 464.993 119.849C462.617 118.064 450.149 83.7076 448.234 78.6349C446.894 75.0833 444.566 66.2322 441.826 63.9518C442.056 64.4004 442.222 64.8668 442.254 65.3742C442.559 70.2617 443.015 115.765 442.238 118.205C441.953 119.099 441.454 119.966 440.565 120.372C439.051 121.064 431.902 120.708 430.22 120.079C429.829 119.933 429.538 119.743 429.383 119.332C428.089 115.89 428.679 43.0672 429.219 35.2208C429.268 34.5052 429.419 33.8935 429.749 33.2556Z"/>
	<path fill="#1FC0EB" d="M303.014 144.638C305.597 144.567 310.37 143.918 312.603 145.191C313.09 145.469 313.138 145.624 313.268 146.138C313.994 148.999 314.363 180.966 313.526 182.397C319.949 182.701 326.416 182.529 332.843 182.445C333.889 176.039 331.636 148.233 333.845 145.221C336.8 144.244 344.564 144.22 347.435 145.427C347.981 147.291 347.889 149.64 347.902 151.585L347.885 203.651C347.881 212.574 348.43 221.806 347.88 230.69C347.811 231.817 347.876 232.592 347.06 233.419C345.628 233.985 343.991 233.831 342.475 233.826C340.063 233.93 336.868 234.24 334.538 233.646C334.242 233.571 333.739 233.379 333.552 233.136C331.546 230.522 334.574 199.755 332.459 196.261C325.947 196.217 319.256 196.439 312.767 196.08C313.014 196.4 313.227 196.745 313.339 197.137C313.928 199.207 313.805 225.978 313.557 229.691C313.479 230.866 313.398 232.226 312.815 233.27C309.756 234.683 302.188 233.817 298.634 233.628C299.31 232.219 298.539 224.524 298.544 222.434L298.589 175.962C298.573 166.969 298.25 157.858 298.662 148.884C298.712 147.812 298.653 146.235 299.305 145.343C300.387 144.651 301.768 144.712 303.014 144.638Z"/>
	<path fill="#1FC0EB" d="M614.738 144.638C618.099 144.53 621.862 144.129 625.12 145.072C625.436 145.758 625.582 146.416 625.625 147.17C626.258 158.257 625.835 169.626 625.848 180.742L626.189 226.877C626.192 228.027 626.322 231.982 625.511 232.755C623.649 234.531 613.813 233.668 611.002 233.511C611.107 233.3 611.197 233.134 611.223 232.895C611.612 229.364 611.18 224.153 611.192 220.426C611.215 213.055 611.796 204.903 611.132 197.621C611.065 196.879 610.863 196.323 610.436 195.716L590.546 195.673C590.838 196.106 591.02 196.556 591.102 197.074C591.663 200.58 591.163 207.425 591.168 211.314C591.176 217.534 591.614 223.868 591.326 230.074C591.276 231.142 591.295 232.377 590.662 233.249C589.286 233.785 587.793 233.692 586.338 233.706C584.096 233.749 578.936 234.321 577.157 232.765C576.791 231.164 576.682 229.485 576.643 227.847C576.374 216.583 576.815 205.225 576.82 193.948C576.824 186.866 575.951 148.854 576.875 146.125C577.031 145.665 577.445 145.425 577.879 145.235C579.655 144.461 588.343 144.246 590.076 145.028C590.463 145.202 590.657 145.41 590.791 145.797C591.468 147.744 591.607 181.216 590.956 182.501C590.929 182.555 590.899 182.607 590.871 182.66C597.441 182.448 604.148 183.079 610.687 182.405C611.594 180.273 611.159 176.463 611.139 174.11C611.099 169.357 610.335 148.314 611.616 145.367C612.616 144.689 613.558 144.754 614.738 144.638Z"/>
	<path fill="#1FC0EB" d="M435.033 144.638C438.62 144.587 446.314 143.733 449.301 145.201C450.083 146.349 450.435 147.883 450.761 149.218C453.789 161.618 456.127 174.223 458.829 186.697C461.73 200.086 465.188 214.212 467.011 227.774C467.193 229.124 467.737 232.073 467.033 233.229C463.733 234.534 456.708 233.833 453.053 233.606C453.249 232.959 449.573 215.915 449.084 213.883C448.379 213.391 447.102 213.574 446.26 213.595C441.43 213.396 436.559 213.522 431.724 213.526C431.902 213.938 431.971 214.31 431.978 214.761C432.026 217.501 429.122 231.589 427.337 233.254C426.056 234.45 416.487 233.641 414.234 233.543C415.291 231.751 415.958 222.639 416.467 219.931C418.049 211.516 430.45 147.308 431.989 145.316C432.904 144.662 433.955 144.695 435.033 144.638ZM433.698 200.266L440.211 200.194L446.226 200.179C446.746 198.592 441.858 169.45 440.806 167.227C440.613 166.82 440.397 166.746 439.994 166.595C439.271 173.661 437.504 180.952 436.224 187.958C435.563 191.571 435.312 195.425 434.428 198.968C434.297 199.493 434.062 199.868 433.698 200.266Z"/>
	<path fill="#1FC0EB" d="M554.004 32.9374C558.418 32.5909 565.356 32.2382 569.701 33.2287C569.763 33.2875 569.827 33.3442 569.886 33.4049C570.577 34.1069 570.825 35.2123 571.082 36.1364C572.284 40.4509 573.094 44.9284 574.039 49.3077C575.942 58.0648 577.789 66.8338 579.58 75.6142C581.81 85.8285 583.851 96.083 585.703 106.372C586.429 110.353 587.737 114.916 587.56 118.932C587.541 119.354 587.525 119.476 587.184 119.744C585.327 121.202 576.588 120.542 574.012 120.412C574.056 120.222 574.071 120.211 574.055 119.983C573.979 118.838 573.19 117.193 572.932 115.981C572.391 113.451 571.047 101.914 569.346 100.632C564.118 99.9718 558.252 100.495 552.963 100.491C553.07 100.877 553.171 101.247 553.148 101.652C552.954 105.06 550.72 117.93 548.465 120.008C544.817 121.374 539.417 120.499 535.534 120.232C536.529 118.426 536.641 113.206 536.961 110.955C539.181 95.3297 543.054 79.7062 546.242 64.2366L550.085 45.5721C550.783 42.1881 551.315 38.5878 552.361 35.2933C552.722 34.1556 553.058 33.6472 554.004 32.9374ZM554.784 87.3424C558.827 87.2141 562.873 87.1957 566.918 87.2874C567.43 85.8245 563.901 63.3434 562.971 61.4153C562.858 61.1798 562.659 60.9654 562.475 60.7825C562.62 60.4798 562.733 60.1626 562.752 59.8243C562.861 57.9093 562.282 55.3623 560.992 53.9356C561.06 54.0943 561.122 54.2527 561.167 54.4198C561.558 55.8747 560.7 58.9089 559.925 60.1938C560.155 61.9996 555.846 85.9871 555.141 86.9151C555.028 87.064 554.907 87.2022 554.784 87.3424Z"/>
	<path fill="#F1FBFC" fill-opacity="0.011764706" d="M560.992 53.9356C562.282 55.3623 562.861 57.9093 562.752 59.8243C562.733 60.1626 562.62 60.4798 562.475 60.7825L562.522 61.6272L562.126 61.8212C560.967 61.4498 560.612 61.1909 559.925 60.1938C560.7 58.9089 561.558 55.8747 561.167 54.4198C561.122 54.2527 561.06 54.0943 560.992 53.9356Z"/>
	<path fill="#1FC0EB" d="M363.908 144.956C367.67 144.334 397.227 144.344 400.899 145.044C401.573 145.61 401.709 146.073 401.882 146.939C402.317 149.105 402.669 156.005 401.487 157.784C399.307 158.191 396.463 157.885 394.215 157.88L377.56 157.83C377.705 158.031 377.797 158.167 377.872 158.405C378.416 160.132 378.35 180.783 377.589 182.179C384.192 182.179 391.465 181.578 397.976 182.516C398.248 182.852 398.396 183.211 398.475 183.632C398.905 185.918 399.081 193.179 397.786 195.05C395.56 196.333 380.856 195.502 377.382 195.467C377.594 195.775 377.76 196.079 377.849 196.447C378.33 198.428 378.217 211.654 377.348 213.052C377.512 213.301 377.651 213.557 377.747 213.841C378.238 215.298 378.274 218.602 377.565 219.967C385.245 219.886 393.525 219.179 401.148 220.026C401.782 220.788 401.883 221.765 401.982 222.719C402.271 225.473 402.928 230.775 401.127 233.008C398.672 234.082 367.988 233.849 364.222 233.077C363.546 232.431 363.43 231.036 363.3 230.108C362.679 225.678 362.932 220.98 362.925 216.513L362.905 194.975L362.961 162.642C362.977 157.558 362.699 152.321 362.99 147.256C363.045 146.293 363.332 145.719 363.908 144.956Z"/>
	<path fill="#1FC0EB" d="M379.207 33.2555C383.137 32.4246 388.227 33.0041 392.258 33.0069C399.963 33.0123 407.75 32.7899 415.446 33.1423C415.714 33.4795 415.905 33.833 416.013 34.2519C416.642 36.698 416.947 43.3624 415.705 45.5316C414.002 46.6317 395.638 46.067 392.225 46.0684C392.485 46.4919 392.667 46.9033 392.762 47.3932C393.156 49.4341 393.281 66.8175 392.958 69.1187C392.903 69.5148 392.715 69.8546 392.495 70.1815C397.105 70.3037 408.871 69.4777 412.479 70.7557C413.152 71.5483 413.184 72.6128 413.208 73.6062C413.259 75.7974 413.844 80.8898 412.4 82.4089C407.926 83.4065 397.281 82.7237 392.261 82.7052C392.487 83.044 392.672 83.3741 392.768 83.7717C393.219 85.6508 393.177 100.386 392.389 101.687C392.589 101.981 392.751 102.287 392.833 102.634C393.14 103.926 393.27 106.113 392.577 107.275C399.893 107.282 408.893 106.619 416 107.605C417.248 109.414 416.979 115.201 416.698 117.465C416.582 118.398 416.435 119.504 415.644 120.115C411.699 120.964 383.045 121.042 379.178 120.181C378.597 119.059 378.523 117.387 378.407 116.137C377.947 111.153 378.251 105.919 378.252 100.912C378.237 91.6106 378.27 82.3096 378.351 73.0089L378.54 48.2666C378.55 44.0213 378.308 39.6538 378.557 35.4207C378.606 34.5843 378.655 33.9209 379.207 33.2555Z"/>
	<path fill="#1FC0EB" d="M520.784 144.638C525.466 144.247 563.431 144.061 564.98 145.133C565.319 145.367 565.523 146.195 565.591 146.587C566.024 149.101 566.297 155.115 564.84 157.196C562.247 158.483 552.516 157.765 549.196 157.741C549.334 157.98 549.47 158.237 549.554 158.502C550.092 160.204 549.54 169.835 549.542 172.481C549.554 187.893 550.059 203.441 549.594 218.837C549.572 219.547 549.486 220.071 549.144 220.698C550.304 222.456 549.763 227.591 549.761 229.846C549.76 230.832 549.854 232.333 549.066 233.059C547.672 234.343 537.352 233.667 535.068 233.528C535.088 233.478 535.114 233.429 535.128 233.376C535.304 232.727 534.803 222.299 534.801 220.631C534.791 212.87 535.281 159.377 534.439 157.853C531.325 157.739 523.853 158.336 521.4 157.672C520.392 157.399 519.596 156.801 519.101 155.876C517.923 153.678 517.84 148.139 518.596 145.725C519.353 144.938 519.72 144.902 520.784 144.638Z"/>
	<path fill="#1FC0EB" d="M504.001 32.9375C508.331 32.9933 531.74 32.1825 533.761 33.6879C533.924 34.1729 534.046 34.6635 534.097 35.1738C534.34 37.6019 534.673 43.0094 533.084 44.9793C531.174 46.0983 520.749 45.4607 517.963 45.4337C518.218 45.8593 518.396 46.3237 518.415 46.822C518.831 57.3456 518.36 68.0811 518.41 78.6282C518.47 91.3849 519.009 104.319 518.527 117.055C518.485 118.164 518.244 118.747 517.431 119.498L516.738 120.125C514.083 120.868 508.652 120.962 505.986 120.276C505.302 120.1 504.646 119.756 504.419 119.043C503.312 115.571 503.968 106.755 503.962 102.793C503.952 96.1763 504.447 47.774 503.091 45.4837C499.87 45.4619 491.811 46.5128 489.47 44.5287C488.471 43.6812 488.026 42.2821 487.937 41.0119C487.808 39.1655 487.583 34.9771 488.778 33.5908C491.755 32.219 500.342 32.9579 504.001 32.9375Z"/>
	<path fill="#1FC0EB" d="M482.656 144.638C486.261 144.513 490.544 144.013 494.044 144.955C494.257 145.277 494.439 145.646 494.54 146.018C495.325 148.897 494.753 166.015 494.764 170.587L494.865 203.355C494.886 208.393 495.103 213.497 494.972 218.529C494.958 219.1 494.828 219.507 494.539 219.995C502.144 220.015 509.89 219.734 517.473 220.199C517.825 220.593 517.966 221.048 518.078 221.553C518.738 224.519 519.004 230.532 517.364 233.138C516.442 233.738 515.948 233.679 514.866 233.749C507.2 233.518 499.481 233.676 491.81 233.69C488.4 233.697 484.435 234.117 481.108 233.445C480.769 233.063 480.694 232.757 480.582 232.265C479.338 226.78 480.145 214.883 480.148 208.559L480.089 161.898C480.096 159.292 479.55 146.845 480.446 145.598C481.045 144.763 481.723 144.795 482.656 144.638Z"/>
	<path fill="#1FC0EB" d="M599.325 33.2556C602.141 32.9925 610.048 32.652 612.367 33.8896C613.379 38.0353 612.883 43.2007 612.898 47.4888L612.973 69.2243L613.101 93.2593C613.121 97.3077 613.358 101.468 613.108 105.503C613.075 106.029 612.928 106.427 612.66 106.879C617.485 106.859 632.023 106.077 635.804 107.497C636.492 108.086 636.631 108.786 636.707 109.655C636.895 111.805 637.706 117.724 636.202 119.392C635.592 120.068 634.938 119.959 634.092 120.031C627.179 119.977 620.251 119.931 613.338 120.015C609.742 120.058 606.022 120.427 602.444 120.169C601.199 120.079 599.752 119.926 598.719 119.186C598.257 117.596 598.075 115.953 598.024 114.303C597.875 109.452 598.146 104.551 598.131 99.6916L597.974 62.9004C597.955 57.6761 597.308 38.1385 598.181 34.6097C598.38 33.8023 598.623 33.6747 599.325 33.2556Z"/>
</svg>
